<svg width="100px"   clip-rule="evenodd" fill-rule="evenodd" stroke-linejoin="round" stroke-miterlimit="2" viewBox="0 0 270 46" xmlns="http://www.w3.org/2000/svg"><path d="m295.892 85.752c2.242 1.716 4.437 4.181 6.4 6.207 2.801 2.889 6.103 6.27 9.69 9.336l12.884-30.164-.443-1.143s2.171-1.541 2.47-2.639l.235-.018 14.736 34.784c.768 1.803 2.51 2.966 3.138 2.966v.475c-.953 0-3.447-.182-4.218-.182-.816 0-2.902.182-3.854.182v-.475c.57 0 .888-.715.888-1.508 0-.445-.126-1.043-.425-1.692l-4.438-10.842h-13.687l-4.525 10.842c-.208.463-.289.876-.289 1.236l.007.204c3.199 2.487 6.558 4.593 9.941 5.811 4.312 1.549 10.222-.055 13.056-1.332l.451.432c-.509 1.318-5.16 3.769-9.859 3.769-11.989 0-22.498-12.419-30.343-20.428-2.492-2.544-4.585-4.483-6.242-5.259-.734-.098-.8-.345-1.49-.55l.197-1.619c1.35.392 2.506.756 3.938.335 10.117-2.191 7.234-17.974-3.876-15.258-1.138.278-1.89.736-1.89 1.403l.002 31.098c.007 1.823 1.042 3.196 1.538 3.196l.559.241-.068.621c-1.377-.164-2.082-.398-3.564-.443l-.581-.003-.336.015c-1.483.033-1.948.268-3.324.431l-.067-.621.559-.241c.497 0 1.537-1.379 1.537-3.214l-.001-21.219v-9.377c0-1.836-1.041-2.83-1.538-2.83l-.559-.243.068-.621c1.375.165 1.841.399 3.324.432l.346.015.231.005.586-.008c1.155-.035 2.181-.49 3.317-.625.988-.162 2.171-.227 3.107-.234 4.993-.037 9.667 3.983 9.98 9.159.218 3.593-2.587 6.796-5.466 8.489-.343.199-1.326.755-2.102 1.104zm-24.735-1.309.257.019c1.162.274 2.03.613 2.573.86 3.461 2.035 6.83 5.882 6.569 10.178-.377 6.226-6.008 10.285-11.958 10.285-4.892 0-8.067-.355-8.528-.377-1.454.01-4.395.577-4.395.577l-.072-.62s2.097-.36 2.097-3.071v-30.863c0-1.835-1.04-2.829-1.539-2.829l-.558-.242.068-.619c1.376.163 2.08.396 3.564.43l.123.015.8-.003c1.156-.035 2.181-.49 3.318-.625.987-.163 2.17-.228 3.106-.235 4.967-.037 9.665 3.47 9.981 8.668.216 3.564-2.553 6.749-5.406 8.452zm-94.486 18.731c0 1.087.976 1.966 1.397 1.966v.476c-.998 0-3.275-.184-4.046-.184-.816 0-2.777.184-3.774.184v-.476c1.024 0 2.74-1.059 3.603-2.971l13.231-30.979-.508-1.213s1.989-1.361 2.487-2.687l.235-.017 14.785 34.901c.773 1.814 2.772 2.966 3.388 2.966v.476c-.952 0-3.697-.184-4.468-.184-.816 0-3.275.184-4.227.184v-.476c.57 0 1.26-.715 1.26-1.508 0-.445-.124-1.043-.425-1.691l-4.438-10.845h-13.686l-4.525 10.844c-.208.462-.289.876-.289 1.234zm-94.25 0c0 1.087.977 1.966 1.396 1.966v.476c-.998 0-3.274-.184-4.045-.184-.817 0-2.776.184-3.774.184v-.476c1.024 0 2.739-1.059 3.603-2.971l13.231-30.979-.509-1.213s1.989-1.361 2.487-2.687l.235-.017 14.786 34.901c.772 1.814 2.772 2.966 3.388 2.966v.476c-.952 0-3.697-.184-4.468-.184-.816 0-3.275.184-4.227.184v-.476c.57 0 1.26-.715 1.26-1.508 0-.445-.125-1.043-.424-1.691l-4.439-10.845h-13.685l-4.526 10.844c-.209.462-.289.876-.289 1.234zm39.344.081c3.035.044 6.292.086 9.177.086 3.01 0 4.44-1.204 4.994-2.234l.233.138c-.729 3.12-1.243 4.356-3.956 4.356-2.359 0-5.496-.183-7.445-.183-1.906 0-6.344.183-8.702.183v-.477c.573 0 1.941-1.035 1.941-2.831v-30.932c0-1.795-1.368-2.831-1.941-2.831v-.476c.953 0 3.605.137 4.375.137.772 0 2.326-.137 3.279-.137v.476c-.573 0-1.942 1.037-1.942 2.831zm24.025-34.797c-1.298.327-1.94 2.062-1.94 3.309v13.627h19.27v-13.666c0-2.353-1.413-3.198-1.98-3.198v-.476c.998 0 3.426.085 4.243.085.771 0 2.44-.138 3.438-.138l-.006.409c-.352.176-1.931.73-1.931 3.306v30.525c0 1.809 1.319 2.833 1.881 2.833v.476c-.952 0-2.855-.183-3.625-.183-.817 0-2.949.234-3.902.234v-.477c.521 0 1.882-1.027 1.882-2.831v-14.771h-19.27v14.771c0 1.809 1.319 2.831 1.881 2.831v.477c-.953 0-3.069-.183-3.84-.183-.816 0-2.75.183-3.703.183v-.477c.521 0 1.882-1.027 1.882-2.831v-30.565c0-2.353-1.413-3.198-1.98-3.198v-.476c.999 0 3.472.137 4.288.137.771 0 2.411-.137 3.409-.137zm98.451 1.647c0-.618.212-.373.142-2.051 0 0 1.923.137 2.694.137.816 0 2.993-.137 3.991-.137v.476c-.727 0-2.612 1.002-2.612 3.198l1.256 30.558c0 1.727 1.669 2.838 2.258 2.838v.477c-.952 0-3.43-.183-4.246-.183-.771 0-3.288.183-4.241.183v-.477c.631 0 2.258-1.1 2.258-2.831l-1.314-26.179-13.919 29.328-15.084-30.649-1.197 27.515c.007 1.721 1.63 2.816 2.259 2.816v.477c-.953 0-2.867-.183-3.638-.183-.816 0-2.685.183-3.638.183v-.477c.59 0 2.258-1.111 2.258-2.838l1.256-30.572c-.006-2.186-1.886-3.184-2.611-3.184v-.476c.997 0 3.174.137 3.991.137.773 0 2.701.045 2.701.045.052 1.751.312 2.203.312 2.203 0 .74 11.675 23.825 13.717 28.091 2.018-4.301 13.407-27.683 13.407-28.425zm17.206 32.2c.764 1.481 4.642 1.42 6.074 1.509 5.263.325 9.391-3.941 9.391-8.628 0-5.983-4.407-9.873-10.294-9.397-.155.012-1.91.075-1.91.075l.17-1.688c.362-.045 2.146-.11 2.381-.117 9.017-1.705 7.828-15.395-1.565-14.815-.959.06-4.247.269-4.247 1.704zm-73.052-27.816-6.021 14.428h11.926zm-94.251 0-6.02 14.428h11.926zm232.034 0-6.022 14.428h11.927z" fill="#fff" transform="translate(-75.9982 -66.9994)" aria-hidden="true"></path></svg>