<svg id="Group_1" data-name="Group 1" xmlns="http://www.w3.org/2000/svg" width="74.841" height="55.079" viewBox="0 0 74.841 55.079">
  <g id="Group_1-2" data-name="Group 1" transform="translate(0 0)">
    <rect id="Rectangle_5" data-name="Rectangle 5" width="74.841" height="55.079" fill="#fff"/>
    <path id="Path_1" data-name="Path 1" d="M717.718,455.555v-1.784c.006-.2.006-.459.006-.77s.006-.49.006-.519c.006-.2.083-.317.235-.341l.16-.018c.037,0,.05-.012.05-.036s-.037-.048-.1-.048l-.624.018-.719-.018c-.07.006-.1.018-.1.048s.019.036.051.036c.095.005.178.012.255.024a.278.278,0,0,1,.171.107.36.36,0,0,1,.064.227c.006.179.006.37.006.585s.006.454.006.7v.125c0,.012-.013.024-.038.036h-2.7a.047.047,0,0,0-.025-.007.031.031,0,0,1-.013-.029v-.125c.006-.2.006-.459.006-.77s.007-.49.007-.519c.006-.2.083-.317.235-.341l.159-.018c.038,0,.05-.012.05-.036s-.037-.048-.1-.048l-.624.018-.719-.018c-.07.006-.1.018-.1.048s.019.036.051.036c.1.005.178.012.255.024a.276.276,0,0,1,.172.107.36.36,0,0,1,.064.227c.006.179.006.37.006.585s.006.454.006.7v1.05c-.006.292-.006.555-.006.794s-.013.406-.025.5a.963.963,0,0,1-.064.227.177.177,0,0,1-.12.1l-.192.024c-.025,0-.037.012-.05.036.006.036.038.048.1.048l.624-.018a2.561,2.561,0,0,0,.312.012c.127.006.28.006.47.006.07-.006.1-.018.1-.048-.025-.024-.038-.036-.051-.036l-.286-.024a.261.261,0,0,1-.184-.1.6.6,0,0,1-.07-.262,3.918,3.918,0,0,1-.025-.531v-1.361q0-.018.038-.036h2.7a.023.023,0,0,0,.019.007c.013.012.019.017.019.029v.627c-.006.292-.006.555-.006.794s-.013.406-.026.5a.964.964,0,0,1-.064.227.176.176,0,0,1-.12.1l-.191.024c-.025,0-.038.012-.05.036.006.036.038.048.1.048l.624-.018a2.551,2.551,0,0,0,.312.012c.127.006.28.006.471.006.07-.006.1-.018.1-.048-.025-.024-.038-.036-.051-.036l-.286-.024a.262.262,0,0,1-.184-.1.615.615,0,0,1-.064-.233,3.474,3.474,0,0,1-.032-.561" transform="translate(-708.967 -405.445)" fill="#00422e"/>
    <path id="Path_2" data-name="Path 2" d="M739.141,455.462a1.5,1.5,0,0,1-.694.62,1.947,1.947,0,0,1-.763.168,1.884,1.884,0,0,1-1.457-.627,2.373,2.373,0,0,1-.579-1.659,1.985,1.985,0,0,1,.51-1.457,1.846,1.846,0,0,1,1.349-.507,1.811,1.811,0,0,1,1.368.591,2.215,2.215,0,0,1,.566,1.611,2.358,2.358,0,0,1-.3,1.26m.2-3.056a2.649,2.649,0,0,0-1.794-.609,2.375,2.375,0,0,0-2.507,2.333,2.406,2.406,0,0,0,.629,1.636,2.334,2.334,0,0,0,1.839.71,2.523,2.523,0,0,0,1.832-.7,2.382,2.382,0,0,0,.706-1.736A2.026,2.026,0,0,0,739.344,452.407Z" transform="translate(-723.241 -405.286)" fill="#00422e" fill-rule="evenodd"/>
    <path id="Path_3" data-name="Path 3" d="M761.809,456.035a1.673,1.673,0,0,1-.1-.412l-.426-3.664c-.013-.108-.038-.161-.077-.161s-.07.036-.1.095l-1.87,3.748-1.947-3.754c-.032-.06-.063-.089-.095-.089s-.057.036-.07.107l-.458,3.892a2.4,2.4,0,0,1-.07.358.209.209,0,0,1-.165.137,1.362,1.362,0,0,1-.211.018.223.223,0,0,0-.064.03c.007.036.039.054.108.054l.535-.018.592.018c.076,0,.115-.018.115-.054a.1.1,0,0,0-.025-.018c-.013-.012-.019-.012-.026-.012a.523.523,0,0,0-.1-.005c-.051-.012-.114-.019-.191-.031s-.115-.077-.115-.179l.007-.3.254-2.769h.026c.013.018.14.286.395.811s.407.818.445.889l.744,1.385a1.787,1.787,0,0,1,.109.185c.045.06.07.089.089.089s.064-.036.1-.1l.115-.215,1.578-3.1.306,3.08a.432.432,0,0,1,.007.095c0,.078-.013.114-.039.12s-.038.018-.038.042.064.054.179.06c.089,0,.274.006.566.018s.458.018.5.018c.089,0,.133-.018.133-.054s-.019-.03-.05-.03c-.07-.005-.134-.005-.2-.005a1.62,1.62,0,0,1-.216-.048.36.36,0,0,1-.248-.221" transform="translate(-737.12 -405.286)" fill="#00422e"/>
    <path id="Path_4" data-name="Path 4" d="M781.365,452.975c.007.221.007.454.007.7v1.05c-.007.292-.007.555-.007.794s-.013.406-.025.5a.967.967,0,0,1-.064.227.176.176,0,0,1-.121.1l-.191.024a.054.054,0,0,0-.051.036c.007.036.039.048.1.048l.624-.018c.127,0,.649.012,1.572.036a1.184,1.184,0,0,0,.254-.024c.045-.018.07-.06.083-.131a1.487,1.487,0,0,0,.057-.311,1.458,1.458,0,0,0,.032-.268c0-.06-.013-.089-.038-.089s-.058.071-.083.215a.352.352,0,0,1-.21.286.957.957,0,0,1-.306.077c-.095.007-.21.007-.357.007a1.253,1.253,0,0,1-.6-.09.473.473,0,0,1-.133-.4V454.2c.007-.029.019-.042.045-.042.165.006.337.006.515.012s.325.012.42.024a.382.382,0,0,1,.21.066.25.25,0,0,1,.1.137.6.6,0,0,1,.025.2c.006.036.019.054.045.054s.045-.043.045-.114l.025-.382c.013-.1.019-.172.032-.232s.019-.1.019-.1a.067.067,0,0,0-.032-.048.307.307,0,0,0-.1.083.418.418,0,0,1-.292.078c-.026.005-.077.005-.165.012h-.846c-.025-.007-.038-.024-.038-.06v-1.647c0-.043.013-.06.038-.06s.172.005.426.005.445.012.541.024a.624.624,0,0,1,.23.06.226.226,0,0,1,.114.113.263.263,0,0,1,.045.132.587.587,0,0,1,.007.1c.006.054.019.078.051.078s.038-.024.045-.065l.031-.394c.013-.084.019-.143.032-.191s.019-.084.019-.089-.013-.03-.026-.054a.391.391,0,0,1-.089.031l-.274.029-1.457.006-.719-.018c-.07.006-.1.018-.1.048s.019.036.051.036c.1.005.178.012.254.024a.276.276,0,0,1,.172.107.358.358,0,0,1,.064.227c.007.179.007.37.007.585" transform="translate(-753.32 -405.353)" fill="#00422e"/>
    <path id="Path_5" data-name="Path 5" d="M807.092,456.256a.311.311,0,0,0,.141.089,1.711,1.711,0,0,0,.343.09,2.346,2.346,0,0,0,.452.042,2.492,2.492,0,0,0,.515-.065,1.546,1.546,0,0,0,.5-.221.96.96,0,0,0,.369-.435,1.274,1.274,0,0,0,.121-.519,1.33,1.33,0,0,0-.2-.692,2.835,2.835,0,0,0-.731-.711l-.179-.132a3.539,3.539,0,0,1-.624-.554.714.714,0,0,1-.152-.448.636.636,0,0,1,.223-.508.846.846,0,0,1,.56-.185,1.477,1.477,0,0,1,.5.083.532.532,0,0,1,.261.185.516.516,0,0,1,.089.2.543.543,0,0,1,.026.149c.013.054.025.078.051.078s.045-.048.045-.138c.005-.173.005-.3.005-.406a1.982,1.982,0,0,0,.02-.227c-.006-.029-.025-.042-.064-.042s-.14-.018-.28-.041a2.257,2.257,0,0,0-.535-.048,1.5,1.5,0,0,0-.961.3.944.944,0,0,0-.356.776,1.2,1.2,0,0,0,.172.633,2.709,2.709,0,0,0,.655.662l.286.221a3.26,3.26,0,0,1,.573.549.863.863,0,0,1,.159.526.781.781,0,0,1-.242.555.916.916,0,0,1-.668.238,1.309,1.309,0,0,1-.618-.149.535.535,0,0,1-.3-.346,1.525,1.525,0,0,1-.045-.334c-.005-.048-.019-.065-.044-.065s-.051.035-.051.095c-.013.12-.019.215-.026.3s-.006.2-.006.334a1.568,1.568,0,0,0,.013.167" transform="translate(-770.576 -405.286)" fill="#00422e"/>
    <path id="Path_6" data-name="Path 6" d="M823.016,455.395v-3.258l.8.012a1.352,1.352,0,0,1,.592.089.313.313,0,0,1,.191.239l.006.066c.007.071.019.1.051.1s.045-.03.045-.078l.019-.656c-.007-.047-.013-.071-.032-.071-.1.017-.184.029-.28.041a2.983,2.983,0,0,1-.35.018h-2.386l-.5-.03a.449.449,0,0,1-.191-.036c-.063-.024-.089-.036-.089-.036s-.026.012-.038.036a.732.732,0,0,0-.038.12c-.013.054-.038.155-.076.31a1.711,1.711,0,0,0-.05.269.133.133,0,0,0,.031.054.044.044,0,0,0,.051-.036c.019-.029.032-.06.051-.1a.885.885,0,0,1,.089-.137.345.345,0,0,1,.2-.125,1.635,1.635,0,0,1,.432-.041l.942-.012v2.524c-.007.292-.007.555-.007.794s-.013.406-.025.5a.969.969,0,0,1-.064.227.176.176,0,0,1-.12.1l-.192.024c-.025,0-.037.012-.05.036.006.036.038.048.1.048l.624-.018a2.559,2.559,0,0,0,.312.012c.127.006.28.006.47.006.07-.006.1-.018.1-.048-.025-.024-.038-.036-.051-.036l-.286-.024a.261.261,0,0,1-.184-.1.616.616,0,0,1-.064-.233,3.467,3.467,0,0,1-.032-.561" transform="translate(-779.518 -405.285)" fill="#00422e"/>
    <path id="Path_7" data-name="Path 7" d="M838.611,453.067c.007.221.007.454.007.7v.871a2.98,2.98,0,0,0,.14.973,1.7,1.7,0,0,0,.426.609,1.319,1.319,0,0,0,.637.329,2.7,2.7,0,0,0,.661.083,2.761,2.761,0,0,0,.668-.095,1.75,1.75,0,0,0,.656-.358,1.351,1.351,0,0,0,.452-.728,4.039,4.039,0,0,0,.12-1.044v-.639c.007-.2.007-.459.007-.77s.007-.49.007-.519c0-.2.051-.31.153-.329a1.173,1.173,0,0,1,.242-.03c.038,0,.051-.012.051-.036s-.038-.048-.1-.048l-.534.018a2.187,2.187,0,0,0-.287-.012c-.108-.006-.235-.006-.387-.006-.07.006-.1.018-.1.048s.019.036.051.036c.095.005.178.012.254.024a.277.277,0,0,1,.171.107.358.358,0,0,1,.064.227c.006.179.006.37.006.585s.006.454.006.7v.746a4.631,4.631,0,0,1-.083.865,1.3,1.3,0,0,1-.274.579,1.232,1.232,0,0,1-.458.334,1.376,1.376,0,0,1-.554.113,2.078,2.078,0,0,1-.522-.065,1.326,1.326,0,0,1-.446-.269,1.26,1.26,0,0,1-.349-.531,2.822,2.822,0,0,1-.121-.937v-.835c.006-.2.006-.459.006-.77s.006-.49.006-.519c.007-.209.083-.322.235-.341l.159-.018c.038,0,.051-.012.051-.036s-.037-.048-.1-.048l-.63.018-.731-.018c-.07.006-.1.018-.1.048s.019.036.051.036c.1.005.178.012.254.024a.275.275,0,0,1,.171.107.358.358,0,0,1,.064.227c.007.179.007.37.007.585" transform="translate(-790.936 -405.445)" fill="#00422e"/>
    <path id="Path_8" data-name="Path 8" d="M860.035,454.415v-.74l.006-1.271c0-.065.019-.1.058-.113a.686.686,0,0,1,.2-.036,1.762,1.762,0,0,1,.235-.012,4.846,4.846,0,0,1,1.165.137,1.885,1.885,0,0,1,.84.466,2.342,2.342,0,0,1,.509.692,2.016,2.016,0,0,1,.177.883,2.668,2.668,0,0,1-.14.812,1.565,1.565,0,0,1-.395.639,1.921,1.921,0,0,1-.648.388,2.421,2.421,0,0,1-.84.143,3.7,3.7,0,0,1-.763-.066.676.676,0,0,1-.3-.149.46.46,0,0,1-.077-.2,1.983,1.983,0,0,1-.013-.28l-.013-1.3m-.541-1.349c.006.221.006.454.006.7v1.05c-.006.292-.006.555-.006.794s-.013.406-.026.5a.94.94,0,0,1-.064.227.177.177,0,0,1-.12.1l-.192.024a.052.052,0,0,0-.05.036c.006.036.037.048.1.048l.624-.018c.248.024.49.036.725.048s.471.024.688.024a3.133,3.133,0,0,0,1.183-.2,2.557,2.557,0,0,0,.751-.5,2.374,2.374,0,0,0,.681-1.672,2.059,2.059,0,0,0-.172-.871,2.58,2.58,0,0,0-.56-.752,1.685,1.685,0,0,0-.973-.471,8.515,8.515,0,0,0-1.463-.1c-.147.012-.293.012-.446.012s-.3.006-.413.006l-.719-.018c-.069.006-.1.018-.1.048s.019.036.051.036c.095.005.178.012.254.024a.278.278,0,0,1,.172.107.361.361,0,0,1,.064.227C859.494,452.661,859.494,452.852,859.494,453.067Z" transform="translate(-804.658 -405.445)" fill="#00422e" fill-rule="evenodd"/>
    <path id="Path_9" data-name="Path 9" d="M881.609,455.555v-1.784c.006-.2.006-.459.006-.77s.007-.49.007-.519c.006-.2.083-.317.235-.341l.159-.018c.038,0,.051-.012.051-.036s-.038-.048-.1-.048l-.624.018-.643-.018c-.07.006-.1.018-.1.048a.043.043,0,0,0,.05.036.493.493,0,0,0,.1.005q.067.01.191.036c.089.024.128.125.128.317s.006.37.006.585.006.454.006.7v1.05c-.006.292-.006.555-.006.794s-.013.406-.025.5a.966.966,0,0,1-.064.227.178.178,0,0,1-.12.1l-.192.024c-.025,0-.038.012-.051.036.006.036.038.048.1.048l.624-.018a2.553,2.553,0,0,0,.312.012c.127.006.28.006.471.006.07-.006.1-.018.1-.048-.025-.024-.038-.036-.051-.036l-.286-.024a.259.259,0,0,1-.184-.1.614.614,0,0,1-.064-.233,3.468,3.468,0,0,1-.032-.561" transform="translate(-818.884 -405.445)" fill="#00422e"/>
    <path id="Path_10" data-name="Path 10" d="M896.542,455.462a1.49,1.49,0,0,1-.694.62,1.947,1.947,0,0,1-.763.168,1.884,1.884,0,0,1-1.457-.627,2.374,2.374,0,0,1-.579-1.659,1.987,1.987,0,0,1,.51-1.457,1.845,1.845,0,0,1,1.349-.507,1.812,1.812,0,0,1,1.368.591,2.215,2.215,0,0,1,.566,1.611,2.352,2.352,0,0,1-.3,1.26m.2-3.056a2.649,2.649,0,0,0-1.795-.609,2.375,2.375,0,0,0-2.506,2.333,2.4,2.4,0,0,0,.63,1.636,2.332,2.332,0,0,0,1.839.71,2.522,2.522,0,0,0,1.832-.7,2.381,2.381,0,0,0,.706-1.736A2.025,2.025,0,0,0,896.745,452.407Z" transform="translate(-826.669 -405.286)" fill="#00422e" fill-rule="evenodd"/>
    <path id="Path_11" data-name="Path 11" d="M712.351,409.419H727.86v12.7H712.351Zm14.534.761h-13.65v11.174h13.65Z" transform="translate(-708.33 -377.439)" fill="#ad8439" fill-rule="evenodd"/>
    <path id="Path_12" data-name="Path 12" d="M717.047,413.264h12.29v10.061h-12.29Zm1.111,1.578a.674.674,0,1,0,0-1.318.679.679,0,1,0,0,1.318Zm10.021,0a.679.679,0,1,0,0-1.318.674.674,0,1,0,0,1.318Zm-10.021,8.223a.674.674,0,1,0,0-1.318.679.679,0,1,0,0,1.318Zm10.021,0a.674.674,0,1,0-.816-.688A.758.758,0,0,0,728.18,423.065Zm-5.011-.037c3.175,0,5.8-2.116,5.8-4.752,0-2.6-2.63-4.715-5.8-4.715s-5.8,2.116-5.8,4.715C717.365,420.911,719.995,423.027,723.169,423.027Z" transform="translate(-711.416 -379.966)" fill="#ad8439" fill-rule="evenodd"/>
    <path id="Path_13" data-name="Path 13" d="M725.037,420.212a.465.465,0,0,0,.5-.408c0-.223-.227-.371-.5-.371s-.5.148-.5.371a.465.465,0,0,0,.5.408m-2.766-.3v-.26c1.247,0,1.791-.148,2.086-.408.318-.278.544-.687.544-1.745h.318a2.3,2.3,0,0,0,.545,1.782c.34.26.838.372,2.086.372v.26a3.314,3.314,0,0,0-2.041.445c-.317.242-.589.687-.589,1.745H724.9a2.144,2.144,0,0,0-.544-1.745A3.383,3.383,0,0,0,722.271,419.915Zm2.766,4.139c-2.857,0-5.147-1.912-5.147-4.251,0-2.3,2.29-4.213,5.147-4.213s5.147,1.911,5.147,4.213C730.184,422.142,727.894,424.054,725.037,424.054Zm1.882-7.536a.441.441,0,0,0-.272-.074,1.219,1.219,0,0,0-.544.186c-.091.056-.181.093-.227.056-.069,0-.113-.13-.159-.2a2.324,2.324,0,0,0-.363-.52.286.286,0,0,0-.454,0,3.88,3.88,0,0,0-.362.557.471.471,0,0,1-.136.2.634.634,0,0,1-.25-.093,1.721,1.721,0,0,0-.544-.186.364.364,0,0,0-.318.038c-.046.037-.046.241.045.427a1.919,1.919,0,0,0,.5.519.945.945,0,0,1,.272.576c0,.148,0,.223-.045.223a1.152,1.152,0,0,1-.408-.148,1.531,1.531,0,0,0-.635-.241c-.227,0-.34,0-.385.093-.046.037-.046.148.046.371a1.722,1.722,0,0,0,.385.594c.136.111.136.186.136.223-.045.037-.136.037-.408-.112a6.183,6.183,0,0,1-1.338-.928.613.613,0,0,0-.476-.111.256.256,0,0,0-.091.3.822.822,0,0,0,.272.594c.2.148.2.223.2.3,0,.056-.091.093-.3.167a1.515,1.515,0,0,0-.68.3c-.136.074-.227.186-.227.224s.091.111.136.148a2.623,2.623,0,0,0,.68.3c.136.037.249.148.249.2a.744.744,0,0,1-.159.26,1.4,1.4,0,0,0-.227.593c.046.224.136.3.227.334a.582.582,0,0,0,.567-.185,2.92,2.92,0,0,1,.907-.854c.136-.074.3-.111.34-.074s0,.223-.045.334a1.355,1.355,0,0,0-.3.669.411.411,0,0,0,0,.278.811.811,0,0,0,.431,0,4.349,4.349,0,0,0,.68-.2c.227-.112.318-.112.363-.074.09.037.045.148-.046.315a2.07,2.07,0,0,1-.5.52,1.292,1.292,0,0,0-.454.408.379.379,0,0,0-.046.427c.046.074.182.111.363.074a1.639,1.639,0,0,0,.771-.223,2.062,2.062,0,0,1,.295-.074,1.117,1.117,0,0,1,.181.223,1.558,1.558,0,0,0,.317.408.291.291,0,0,0,.272.148.229.229,0,0,0,.227-.148,1.6,1.6,0,0,0,.272-.445.217.217,0,0,1,.2-.186.861.861,0,0,1,.227.074.936.936,0,0,0,.544.186,1.082,1.082,0,0,0,.408-.074c.046-.038,0-.278-.045-.428-.137-.148-.635-.519-.772-.631a.511.511,0,0,1-.316-.371.286.286,0,0,1,.045-.278c.046-.037.182,0,.318.074a2.658,2.658,0,0,0,.68.241.916.916,0,0,0,.476,0c.046-.037.046-.2,0-.353,0-.112-.159-.3-.34-.557-.136-.148-.091-.26-.046-.3s.181-.037.318.074a3.621,3.621,0,0,0,1.247.853.727.727,0,0,0,.567,0c.046-.037.046-.111.046-.223a1.3,1.3,0,0,0-.227-.445.331.331,0,0,1-.158-.26c.045-.074.158-.112.249-.168a2.693,2.693,0,0,0,.589-.3.568.568,0,0,0,.182-.223c0-.074-.045-.148-.182-.223a1.658,1.658,0,0,0-.544-.259c-.136-.074-.25-.149-.25-.186a.506.506,0,0,1,.114-.316,1.379,1.379,0,0,0,.182-.445.538.538,0,0,0-.091-.334.943.943,0,0,0-.522.074,3.81,3.81,0,0,0-.725.705.9.9,0,0,1-.476.353.444.444,0,0,1-.318,0c-.045-.037-.045-.167.046-.315a4.357,4.357,0,0,0,.385-.743c.045-.223,0-.352-.046-.39a.507.507,0,0,0-.34,0,1.761,1.761,0,0,0-.907.39.31.31,0,0,1-.318,0c-.069-.074,0-.223.136-.352a4.013,4.013,0,0,0,.861-.854C727.01,416.834,727.01,416.592,726.919,416.518Zm-4.966,1.169a.417.417,0,1,0-.5-.408A.465.465,0,0,0,721.953,417.687Zm6.167,0a.421.421,0,0,0,.453-.371.451.451,0,0,0-.453-.408.465.465,0,0,0-.5.408C727.622,417.539,727.849,417.687,728.121,417.687Zm-6.077,5.086a.464.464,0,0,0,.5-.408c0-.223-.227-.371-.5-.371s-.5.148-.5.371A.464.464,0,0,0,722.044,422.773Zm6.031-.037a.411.411,0,1,0,0-.817.417.417,0,1,0,0,.817Z" transform="translate(-713.284 -381.494)" fill="#ad8439" fill-rule="evenodd"/>
    <path id="Path_14" data-name="Path 14" d="M762.055,409.419h15.614v12.7H762.055Zm14.429,1.132H763.241v10.432h13.243Z" transform="translate(-740.99 -377.439)" fill="#ad8439" fill-rule="evenodd"/>
    <path id="Path_15" data-name="Path 15" d="M779.582,423.8H768.14v-9.022h11.442Zm-11.068-.316h10.7v-8.39h-10.7Z" transform="translate(-744.989 -380.961)" fill="#ad8439" fill-rule="evenodd"/>
    <path id="Path_16" data-name="Path 16" d="M779.983,420.891c0-.26-.461-.52-1.274-.52a2.933,2.933,0,0,0-1.427.316.068.068,0,0,1-.066.074.86.86,0,0,1-.307-.13c-.132-.186-.132-.26-.066-.26a2.327,2.327,0,0,1,1.866-.742,3.493,3.493,0,0,1,1.8.427c-.308-1-.988-1.189-1.384-1.133l-.044-.037a2.2,2.2,0,0,0,1.186-1.726,2.793,2.793,0,0,0-2.042,1.132l-.045-.037c.088-.279-.219-.91-1.405-1.1.132.315.593.761.593,1.392s-.088.873-.9,1.5a.906.906,0,0,1-.439-.112.461.461,0,0,1-.153-.259.058.058,0,0,1,.065-.056,1.925,1.925,0,0,0,.373-1.207c0-.687-.286-1.077-.593-1.077s-.593.39-.593,1.077a1.732,1.732,0,0,0,.132.687c.088.186.2.316.307.52v.056a.259.259,0,0,1-.153.259.573.573,0,0,1-.374.112c-.812-.631-.9-.873-.9-1.5a2.262,2.262,0,0,1,.615-1.392c-1.274.185-1.494.816-1.428,1.1l-.044.037a2.805,2.805,0,0,0-2.131-1.132,2.139,2.139,0,0,0,1.274,1.726l-.043.037c-.484-.056-1.142.13-1.362,1.133a3.2,3.2,0,0,1,1.779-.427,2.5,2.5,0,0,1,1.866.742s.089.074-.065.26c-.154.056-.22.13-.308.13-.065,0-.065,0-.153-.074a2.448,2.448,0,0,0-1.406-.316c-.835,0-1.274.26-1.274.52,0,.242.439.5,1.274.5a3.333,3.333,0,0,0,.878-.093,2.748,2.748,0,0,0,.527-.278h.153c.088,0,.154.056.308.112.154.129.065.2.065.259a2.617,2.617,0,0,1-1.866.687,2.785,2.785,0,0,1-1.779-.427,1.309,1.309,0,0,0,1.34,1.188v.038a2.109,2.109,0,0,0-1.209,1.726,3,3,0,0,0,2.131-1.132l.044.037c-.066.278.154.91,1.428,1.095a2.236,2.236,0,0,1-.615-1.448c0-.557,0-.817.9-1.448a.327.327,0,0,1,.374.056c.088.13.153.2.153.315v.075a1.336,1.336,0,0,0-.439,1.187c0,.705.286,1.077.593,1.077s.593-.372.593-1.077a2.074,2.074,0,0,0-.109-.742,1.267,1.267,0,0,0-.329-.445v-.075c0-.111.065-.185.153-.315.132-.112.373-.112.373-.056.879.631.879.891.879,1.448a3.061,3.061,0,0,1-.505,1.448c1.186-.185,1.405-.817,1.405-1.132h.045a2.887,2.887,0,0,0,2.042,1.132,2.126,2.126,0,0,0-1.186-1.726v-.038a1.322,1.322,0,0,0,1.34-1.188,2.694,2.694,0,0,1-1.713.427,2.437,2.437,0,0,1-1.866-.687c-.066-.055-.066-.13.066-.259a.483.483,0,0,1,.307-.112h.066a2.228,2.228,0,0,0,1.427.371c.813,0,1.274-.259,1.274-.5" transform="translate(-746.883 -382.526)" fill="#ad8439"/>
    <path id="Path_17" data-name="Path 17" d="M812.283,409.419h15.509v12.7H812.283Zm14.534.761H813.168v11.174h13.649Z" transform="translate(-773.995 -377.439)" fill="#ad8439" fill-rule="evenodd"/>
    <path id="Path_18" data-name="Path 18" d="M816.979,413.264h12.29v10.061h-12.29Zm1.111,1.578a.674.674,0,1,0,0-1.318.679.679,0,1,0,0,1.318Zm10.022,0a.679.679,0,1,0,0-1.318.674.674,0,1,0,0,1.318Zm-10.022,8.223a.674.674,0,1,0,0-1.318.679.679,0,1,0,0,1.318Zm10.022,0a.674.674,0,1,0-.816-.688A.758.758,0,0,0,828.112,423.065Zm-5.011-.037c3.174,0,5.8-2.116,5.8-4.752,0-2.6-2.631-4.715-5.8-4.715s-5.8,2.116-5.8,4.715C817.3,420.911,819.927,423.027,823.1,423.027Z" transform="translate(-777.081 -379.966)" fill="#ad8439" fill-rule="evenodd"/>
    <path id="Path_19" data-name="Path 19" d="M824.969,420.212a.465.465,0,0,0,.5-.408c0-.223-.227-.371-.5-.371s-.5.148-.5.371a.465.465,0,0,0,.5.408m-2.766-.3v-.26c1.247,0,1.791-.148,2.086-.408.318-.278.544-.687.544-1.745h.318a2.3,2.3,0,0,0,.545,1.782c.34.26.838.372,2.085.372v.26a3.313,3.313,0,0,0-2.041.445c-.318.242-.589.687-.589,1.745h-.318a2.144,2.144,0,0,0-.544-1.745A3.385,3.385,0,0,0,822.2,419.915Zm2.766,4.139c-2.857,0-5.147-1.912-5.147-4.251,0-2.3,2.29-4.213,5.147-4.213s5.147,1.911,5.147,4.213C830.116,422.142,827.826,424.054,824.969,424.054Zm1.882-7.536a.44.44,0,0,0-.272-.074,1.219,1.219,0,0,0-.544.186c-.091.056-.182.093-.227.056-.069,0-.113-.13-.159-.2a2.324,2.324,0,0,0-.363-.52.286.286,0,0,0-.454,0,3.951,3.951,0,0,0-.363.557.464.464,0,0,1-.136.2.636.636,0,0,1-.25-.093,1.731,1.731,0,0,0-.544-.186.363.363,0,0,0-.318.038c-.046.037-.046.241.046.427a1.9,1.9,0,0,0,.5.519.945.945,0,0,1,.272.576c0,.148,0,.223-.046.223a1.15,1.15,0,0,1-.408-.148,1.53,1.53,0,0,0-.635-.241c-.227,0-.341,0-.385.093-.045.037-.045.148.045.371a1.741,1.741,0,0,0,.386.594c.136.111.136.186.136.223-.046.037-.136.037-.408-.112a6.183,6.183,0,0,1-1.338-.928.615.615,0,0,0-.477-.111.257.257,0,0,0-.09.3.819.819,0,0,0,.272.594c.2.148.2.223.2.3,0,.056-.091.093-.3.167a1.522,1.522,0,0,0-.68.3c-.136.074-.227.186-.227.224s.091.111.137.148a2.62,2.62,0,0,0,.68.3c.136.037.25.148.25.2a.744.744,0,0,1-.159.26,1.39,1.39,0,0,0-.227.593c.046.224.136.3.227.334a.582.582,0,0,0,.567-.185,2.925,2.925,0,0,1,.907-.854c.135-.074.294-.111.34-.074s0,.223-.046.334a1.356,1.356,0,0,0-.294.669.411.411,0,0,0,0,.278.811.811,0,0,0,.431,0,4.342,4.342,0,0,0,.68-.2c.227-.112.318-.112.362-.074.091.037.046.148-.045.315a2.061,2.061,0,0,1-.5.52,1.294,1.294,0,0,0-.453.408.379.379,0,0,0-.046.427c.046.074.181.111.363.074a1.638,1.638,0,0,0,.77-.223,2.081,2.081,0,0,1,.295-.074,1.137,1.137,0,0,1,.181.223,1.559,1.559,0,0,0,.318.408.291.291,0,0,0,.272.148.229.229,0,0,0,.227-.148,1.61,1.61,0,0,0,.272-.445.217.217,0,0,1,.2-.186.874.874,0,0,1,.227.074.939.939,0,0,0,.544.186,1.082,1.082,0,0,0,.408-.074c.045-.038,0-.278-.045-.428-.136-.148-.635-.519-.77-.631a.514.514,0,0,1-.319-.371.286.286,0,0,1,.046-.278c.046-.037.182,0,.317.074a2.658,2.658,0,0,0,.68.241.916.916,0,0,0,.476,0c.046-.037.046-.2,0-.353,0-.112-.159-.3-.341-.557-.136-.148-.09-.26-.045-.3s.181-.037.317.074a3.624,3.624,0,0,0,1.247.853.727.727,0,0,0,.567,0c.046-.037.046-.111.046-.223a1.294,1.294,0,0,0-.227-.445.332.332,0,0,1-.159-.26c.045-.074.159-.112.25-.168a2.685,2.685,0,0,0,.589-.3.569.569,0,0,0,.182-.223c0-.074-.045-.148-.182-.223a1.656,1.656,0,0,0-.544-.259c-.137-.074-.25-.149-.25-.186a.506.506,0,0,1,.113-.316,1.371,1.371,0,0,0,.182-.445.536.536,0,0,0-.091-.334.943.943,0,0,0-.522.074,3.831,3.831,0,0,0-.726.705.892.892,0,0,1-.476.353.443.443,0,0,1-.317,0c-.045-.037-.045-.167.045-.315a4.288,4.288,0,0,0,.386-.743c.045-.223,0-.352-.046-.39a.509.509,0,0,0-.341,0,1.762,1.762,0,0,0-.906.39.31.31,0,0,1-.317,0c-.069-.074,0-.223.136-.352a4.014,4.014,0,0,0,.861-.854C826.942,416.834,826.942,416.592,826.851,416.518Zm-4.966,1.169a.417.417,0,1,0-.5-.408A.465.465,0,0,0,821.885,417.687Zm6.167,0a.421.421,0,0,0,.453-.371.451.451,0,0,0-.453-.408.465.465,0,0,0-.5.408C827.554,417.539,827.78,417.687,828.053,417.687Zm-6.077,5.086a.464.464,0,0,0,.5-.408c0-.223-.227-.371-.5-.371s-.5.148-.5.371A.464.464,0,0,0,821.976,422.773Zm6.031-.037a.411.411,0,1,0,0-.817.417.417,0,1,0,0,.817Z" transform="translate(-778.949 -381.494)" fill="#ad8439" fill-rule="evenodd"/>
    <path id="Path_20" data-name="Path 20" d="M861.913,409.419h15.614v12.7H861.913Zm14.428,1.132H863.1v10.432h13.243Z" transform="translate(-806.607 -377.439)" fill="#ad8439" fill-rule="evenodd"/>
    <path id="Path_21" data-name="Path 21" d="M879.435,423.8H867.993v-9.022h11.442Zm-11.068-.316h10.7v-8.39h-10.7Z" transform="translate(-810.602 -380.961)" fill="#ad8439" fill-rule="evenodd"/>
    <path id="Path_22" data-name="Path 22" d="M879.836,420.891c0-.26-.461-.52-1.274-.52a2.932,2.932,0,0,0-1.427.316.068.068,0,0,1-.066.074.869.869,0,0,1-.307-.13c-.132-.186-.132-.26-.066-.26a2.328,2.328,0,0,1,1.866-.742,3.493,3.493,0,0,1,1.8.427c-.308-1-.988-1.189-1.384-1.133l-.044-.037a2.2,2.2,0,0,0,1.186-1.726,2.793,2.793,0,0,0-2.042,1.132l-.044-.037c.088-.279-.22-.91-1.406-1.1.132.315.593.761.593,1.392s-.088.873-.9,1.5a.907.907,0,0,1-.44-.112.461.461,0,0,1-.153-.259.058.058,0,0,1,.065-.056,1.924,1.924,0,0,0,.373-1.207c0-.687-.286-1.077-.592-1.077s-.594.39-.594,1.077a1.729,1.729,0,0,0,.132.687c.088.186.2.316.307.52v.056a.259.259,0,0,1-.153.259.575.575,0,0,1-.374.112c-.812-.631-.9-.873-.9-1.5a2.261,2.261,0,0,1,.615-1.392c-1.274.185-1.494.816-1.428,1.1l-.044.037a2.806,2.806,0,0,0-2.13-1.132,2.139,2.139,0,0,0,1.273,1.726l-.044.037c-.484-.056-1.143.13-1.362,1.133a3.2,3.2,0,0,1,1.779-.427,2.5,2.5,0,0,1,1.866.742s.089.074-.065.26c-.154.056-.219.13-.308.13-.065,0-.065,0-.153-.074a2.445,2.445,0,0,0-1.406-.316c-.835,0-1.274.26-1.274.52,0,.242.439.5,1.274.5a3.332,3.332,0,0,0,.878-.093,2.75,2.75,0,0,0,.527-.278h.153c.089,0,.154.056.308.112.154.129.065.2.065.259a2.617,2.617,0,0,1-1.866.687,2.785,2.785,0,0,1-1.779-.427,1.308,1.308,0,0,0,1.34,1.188v.038a2.109,2.109,0,0,0-1.208,1.726,3,3,0,0,0,2.13-1.132l.044.037c-.066.278.154.91,1.428,1.095a2.236,2.236,0,0,1-.615-1.448c0-.557,0-.817.9-1.448a.327.327,0,0,1,.374.056c.088.13.153.2.153.315v.075a1.336,1.336,0,0,0-.44,1.187c0,.705.286,1.077.594,1.077s.592-.372.592-1.077a2.074,2.074,0,0,0-.109-.742,1.267,1.267,0,0,0-.329-.445v-.075c0-.111.065-.185.153-.315.132-.112.373-.112.373-.056.879.631.879.891.879,1.448a3.063,3.063,0,0,1-.505,1.448c1.186-.185,1.406-.817,1.406-1.132h.044a2.888,2.888,0,0,0,2.042,1.132,2.126,2.126,0,0,0-1.186-1.726v-.038a1.322,1.322,0,0,0,1.34-1.188,2.7,2.7,0,0,1-1.714.427,2.438,2.438,0,0,1-1.866-.687c-.066-.055-.066-.13.066-.259a.483.483,0,0,1,.307-.112h.066a2.228,2.228,0,0,0,1.427.371c.813,0,1.274-.259,1.274-.5" transform="translate(-812.497 -382.526)" fill="#ad8439"/>
    <path id="Path_23" data-name="Path 23" d="M780.413,332.9H717.291v22.811h63.122Zm-63.4-.274h63.671v23.359H717.017Z" transform="translate(-711.396 -326.978)" fill="#00422e"/>
    <path id="Path_24" data-name="Path 24" d="M778.377,328.585H713.068v25.059h65.309Zm-66.124-.814h66.938V354.46H712.253Z" transform="translate(-708.265 -323.788)" fill="#00422e"/>
    <path id="Path_25" data-name="Path 25" d="M818.572,342.152a5.8,5.8,0,0,1,1.891.223l.72,1.018a4.592,4.592,0,0,0-2.51-.446,2.256,2.256,0,0,0-2.167,2.383c0,2.636,5.406,3.285,5.406,6.869a3.312,3.312,0,0,1-3.529,3.229,9.171,9.171,0,0,1-2.543-.581s-.181-.727-.289-1.062a4.5,4.5,0,0,0,2.833.8,2.057,2.057,0,0,0,2.3-2.2c.2-3.5-5.305-3.137-5.335-7.023a3.314,3.314,0,0,1,3.228-3.218" transform="translate(-776.006 -333.23)" fill="#00422e" fill-rule="evenodd"/>
    <path id="Path_26" data-name="Path 26" d="M726.722,342.833h4.787a5.682,5.682,0,0,1,5.15,5.975c0,4.817-3.717,6.434-5.735,6.434H727.9l.019,3.717-1.2.018V342.833m2.861.82a15.2,15.2,0,0,1-1.654,0V354.42s.959-.015,1.655-.015c3.075,0,5.846-1.94,5.889-5.3A5.307,5.307,0,0,0,729.582,343.653Z" transform="translate(-717.773 -333.685)" fill="#00422e" fill-rule="evenodd"/>
    <path id="Path_27" data-name="Path 27" d="M766.266,342.97l1.062.982a13.232,13.232,0,0,0-2.274-.231c-.507,0-2.094-.026-2.094-.026v3.4h4.093l.592-.172v1.032l-.57-.172-4.07,0,0,7.056s1.5.029,2.213.009a5.541,5.541,0,0,0,2.768-.675l-1.019,1.48-5.183.019,0-12.7h4.484" transform="translate(-740.81 -333.775)" fill="#00422e" fill-rule="evenodd"/>
    <path id="Path_28" data-name="Path 28" d="M788.065,342.833h3.423a2.445,2.445,0,0,1,2.593,2.572c-.063,2.8-3.942,2.414-3.942,2.414l5.343,7.612h-1.569l-.188-.719c-1.19-1.933-3.862-5.527-4.731-6.678l0,6.784.226.642h-1.374l.193-.642.024-11.985m.887.728v3.527l2.2-.008a1.868,1.868,0,0,0,2.005-1.933,1.746,1.746,0,0,0-1.959-1.587Z" transform="translate(-757.939 -333.685)" fill="#00422e" fill-rule="evenodd"/>
    <path id="Path_29" data-name="Path 29" d="M861.264,342.835l1.73,0,8.371,10.445v-9.737l-.167-.593h.946l-.195.593,0,12.163h-.389l-7.686-9.764v8.947l.25.593h-1.057l.223-.621v-9.6l-1.39-1.836-.642-.591" transform="translate(-806.181 -333.685)" fill="#00422e"/>
    <path id="Path_30" data-name="Path 30" d="M839.574,343.165l1.4,0,5.232,12.531-1.7,0,.172-.5-.853-2.167h-4.034l-.859,2.2.176.467-1.359,0,.408-.531,3.126-8.192-1.309-3.271-.393-.535m2.088,4.709-1.693,4.518s2.169.04,3.56,0Z" transform="translate(-790.725 -333.902)" fill="#00422e" fill-rule="evenodd"/>
    <rect id="Rectangle_6" data-name="Rectangle 6" width="52.112" height="0.901" transform="translate(13.735 24.843)" fill="#00422e"/>
  </g>
</svg>
