<?xml version="1.0" standalone="no"?>
<!DOCTYPE svg PUBLIC "-//W3C//DTD SVG 20010904//EN"
 "http://www.w3.org/TR/2001/REC-SVG-20010904/DTD/svg10.dtd">
<svg version="1.0" xmlns="http://www.w3.org/2000/svg"
 width="3125.000000pt" height="1875.000000pt" viewBox="0 0 3125.000000 1875.000000"
 preserveAspectRatio="xMidYMid meet">

<g transform="translate(0.000000,1875.000000) scale(0.100000,-0.100000)"
fill="#000000" stroke="none">
<path d="M0 9375 l0 -9375 15625 0 15625 0 0 9375 0 9375 -15625 0 -15625 0 0
-9375z m23110 2880 l0 -285 -3235 0 -3235 0 0 285 0 285 3235 0 3235 0 0 -285z
m-21480 -490 l0 -765 2640 0 2640 0 0 765 0 765 295 0 295 0 0 -1815 0 -1815
-295 0 -295 0 0 765 0 765 -2640 0 -2640 0 0 -765 0 -765 -295 0 -295 0 0
1815 0 1815 295 0 295 0 0 -765z m9962 323 c1050 -1155 1920 -2106 2488 -2723
306 -333 410 -449 410 -459 0 -3 -174 -6 -387 -6 l-388 0 -130 143 c-221 241
-1967 2149 -2188 2390 -115 125 -210 227 -213 227 -5 0 -1994 -2179 -1994
-2185 0 -3 721 -5 1603 -5 l1603 0 258 -281 c142 -154 256 -282 254 -285 -3
-2 -1138 -3 -2522 -2 l-2518 3 1657 1813 c912 996 1659 1812 1661 1812 2 0
184 -199 406 -442z m3829 411 c267 -74 441 -193 610 -418 85 -113 162 -257
178 -331 30 -141 22 -383 -16 -525 -80 -296 -306 -559 -598 -696 -170 -80
-301 -99 -680 -99 l-269 0 46 -47 c46 -48 1248 -1449 1262 -1471 5 -9 -78 -12
-341 -12 l-348 0 -70 78 c-354 397 -812 907 -1269 1412 l-547 605 963 5 963 5
56 23 c182 73 302 213 332 387 31 183 -76 381 -261 478 -133 70 -46 67 -1579
67 l-1381 0 -244 268 c-134 147 -249 275 -257 285 -13 17 63 17 1670 15 l1684
-3 96 -26z m14789 -1784 l0 -1815 -297 2 -298 3 -5 1176 -5 1176 -1315 -1118
c-723 -615 -1318 -1118 -1322 -1118 -4 -1 -598 503 -1320 1119 l-1313 1119 -3
-1179 -2 -1180 -295 0 -295 0 0 1810 c0 996 2 1810 5 1810 3 0 728 -617 1611
-1371 l1606 -1371 22 20 c11 11 334 284 716 608 740 627 1338 1135 2059 1747
245 207 447 377 448 377 2 0 3 -817 3 -1815z m-7410 5 l0 -280 -3080 0 -3080
0 0 280 0 280 3080 0 3080 0 0 -280z m310 -1535 l0 -285 -3235 0 -3235 0 0
285 0 285 3235 0 3235 0 0 -285z m-19581 -1790 c250 -66 392 -278 392 -585 0
-131 -9 -188 -45 -283 -61 -162 -192 -276 -366 -318 -71 -17 -250 -17 -320 0
-132 33 -253 116 -320 221 -72 112 -106 292 -89 465 29 288 193 473 458 515
72 11 220 4 290 -15z m4130 -1 c86 -19 144 -54 165 -98 20 -43 13 -79 -21
-106 -39 -31 -81 -33 -169 -11 -166 42 -266 37 -344 -20 -48 -35 -93 -121
-110 -208 -15 -78 -12 -226 5 -299 54 -230 201 -297 457 -209 118 41 146 41
178 0 32 -41 27 -95 -12 -134 -87 -87 -322 -136 -497 -105 -276 49 -450 276
-451 588 0 233 86 418 247 530 53 36 159 76 232 88 73 12 237 4 320 -16z
m5116 1 c174 -46 298 -168 355 -350 31 -98 38 -276 15 -364 -20 -78 -64 -168
-105 -214 -16 -19 -30 -37 -30 -41 0 -3 24 -6 53 -6 95 0 157 -53 142 -120 -9
-39 -46 -68 -98 -74 -71 -10 -468 -30 -549 -29 -263 5 -453 156 -518 409 -24
95 -27 275 -5 379 48 229 216 389 449 426 69 11 219 2 291 -16z m-10819 -24
c37 -22 59 -70 50 -107 -4 -15 -20 -39 -36 -55 -28 -29 -29 -29 -159 -29
l-130 0 -3 -428 -3 -429 -29 -37 c-30 -40 -78 -66 -122 -66 -41 0 -99 38 -123
80 -20 37 -21 48 -21 459 l0 421 -134 0 c-117 0 -136 2 -158 20 -60 47 -57
129 5 169 31 20 46 21 432 21 374 0 402 -1 431 -19z m3154 -3 c18 -13 43 -36
54 -51 20 -27 21 -43 26 -400 5 -339 7 -375 24 -410 25 -51 73 -85 137 -99 96
-19 175 19 222 106 21 40 22 53 27 413 5 356 6 373 26 400 65 89 191 80 248
-17 20 -33 21 -53 24 -355 4 -440 -7 -506 -104 -614 -87 -97 -220 -145 -404
-145 -241 1 -406 90 -473 254 -21 54 -22 64 -22 450 0 392 0 395 22 426 45 63
133 82 193 42z m4000 -1 c66 -44 75 -72 78 -259 l4 -168 204 0 204 0 0 167 c0
159 1 168 25 208 57 98 177 99 249 2 21 -28 21 -37 21 -512 0 -473 0 -484 -21
-511 -53 -71 -134 -93 -193 -52 -73 50 -76 58 -79 274 l-3 194 -204 0 -203 0
-4 -187 c-3 -166 -5 -192 -23 -222 -59 -100 -187 -106 -251 -12 l-24 36 0 480
c0 461 1 481 20 513 43 70 135 93 200 49z m5259 5 c19 -9 44 -30 55 -45 20
-27 21 -44 26 -400 5 -359 6 -373 27 -413 46 -87 126 -125 221 -106 63 13 103
40 134 90 23 37 23 41 28 414 5 362 6 378 26 405 11 15 36 39 55 51 65 45 167
14 203 -62 14 -29 16 -83 16 -399 0 -327 -2 -371 -18 -425 -59 -188 -223 -285
-482 -286 -176 0 -287 36 -384 125 -66 60 -103 135 -117 236 -6 45 -9 213 -7
398 3 302 4 322 24 355 43 74 122 99 193 62z m2324 7 c59 -16 110 -70 155
-162 35 -73 302 -766 323 -841 5 -18 5 -45 -1 -67 -27 -98 -180 -119 -237 -33
-9 14 -33 67 -53 118 l-37 91 -225 3 -225 2 -33 -92 c-17 -51 -43 -107 -56
-125 -47 -62 -150 -68 -205 -14 -35 35 -44 71 -31 119 20 73 283 768 316 837
72 147 175 201 309 164z m1647 -11 c18 -13 43 -36 54 -51 20 -28 21 -40 24
-452 l3 -424 219 -3 219 -3 29 -28 c37 -35 46 -77 28 -122 -27 -64 -39 -66
-392 -63 l-316 3 -33 37 c-19 20 -39 55 -45 77 -7 27 -10 191 -8 498 l3 458
24 34 c44 62 131 79 191 39z m1610 3 c19 -10 45 -36 57 -57 23 -39 23 -41 23
-508 0 -459 0 -469 -21 -506 -57 -101 -181 -104 -253 -6 -21 27 -21 38 -21
511 0 475 0 484 21 512 52 70 126 91 194 54z m1760 4 c69 -36 81 -106 26 -161
l-34 -34 -131 0 -131 0 0 -424 0 -423 -23 -34 c-37 -55 -84 -82 -136 -76 -47
5 -83 27 -115 71 -20 27 -21 41 -24 457 l-3 429 -125 0 c-130 0 -156 6 -186
44 -37 45 -11 133 46 156 11 5 198 9 414 9 330 1 398 -1 422 -14z m1110 -6
c48 -30 50 -34 176 -283 l111 -220 45 85 c25 46 78 147 118 224 40 77 84 152
98 167 79 86 212 44 212 -66 0 -38 -19 -76 -162 -312 l-162 -269 -6 -181 c-6
-175 -7 -183 -32 -221 -65 -98 -193 -94 -253 8 -17 29 -21 58 -25 209 l-5 175
-143 237 c-152 253 -172 292 -172 335 0 67 67 133 135 133 16 0 46 -10 65 -21z"/>
<path d="M3271 7195 c-128 -40 -190 -191 -178 -434 8 -183 47 -277 134 -328
39 -23 59 -27 118 -28 178 -1 265 130 265 397 -1 227 -61 357 -184 393 -60 18
-97 18 -155 0z"/>
<path d="M12516 7198 c-25 -7 -58 -29 -87 -58 -72 -72 -94 -151 -94 -340 0
-108 5 -159 17 -200 43 -137 115 -195 244 -195 182 1 261 137 252 433 -7 191
-44 285 -133 338 -49 28 -140 39 -199 22z"/>
<path d="M16531 6922 c-47 -136 -86 -253 -89 -259 -3 -10 35 -13 172 -13 97 0
176 4 176 8 0 9 -169 504 -173 508 -1 2 -40 -109 -86 -244z"/>
</g>
</svg>
